<?xml version="1.0" encoding="UTF-8" standalone="no"?>
<!-- Created with Inkscape (http://www.inkscape.org/) -->

<svg
   xmlns:osb="http://www.openswatchbook.org/uri/2009/osb"
   xmlns:dc="http://purl.org/dc/elements/1.1/"
   xmlns:cc="http://creativecommons.org/ns#"
   xmlns:rdf="http://www.w3.org/1999/02/22-rdf-syntax-ns#"
   xmlns:svg="http://www.w3.org/2000/svg"
   xmlns="http://www.w3.org/2000/svg"
   xmlns:xlink="http://www.w3.org/1999/xlink"
   xmlns:sodipodi="http://sodipodi.sourceforge.net/DTD/sodipodi-0.dtd"
   xmlns:inkscape="http://www.inkscape.org/namespaces/inkscape"
   width="80mm"
   height="80mm"
   viewBox="0 0 80 80"
   version="1.1"
   id="svg126"
   inkscape:version="0.92.4 (5da689c313, 2019-01-14)"
   sodipodi:docname="ScorpioLogo.svg"
   inkscape:export-filename="C:\bauerSVN\FIWARE\Scorpio Broker\Logo\ScorpioLogo.png"
   inkscape:export-xdpi="300"
   inkscape:export-ydpi="300">
  <defs
     id="defs120">
    <linearGradient
       id="linearGradient5168"
       osb:paint="solid">
      <stop
         style="stop-color:#000000;stop-opacity:1;"
         offset="0"
         id="stop5166" />
    </linearGradient>
    <linearGradient
       id="linearGradient5162"
       osb:paint="solid">
      <stop
         style="stop-color:#000000;stop-opacity:1;"
         offset="0"
         id="stop5160" />
    </linearGradient>
    <linearGradient
       id="linearGradient5156"
       osb:paint="solid">
      <stop
         style="stop-color:#000000;stop-opacity:1;"
         offset="0"
         id="stop5154" />
    </linearGradient>
    <linearGradient
       id="linearGradient5150"
       osb:paint="solid">
      <stop
         style="stop-color:#000000;stop-opacity:1;"
         offset="0"
         id="stop5148" />
    </linearGradient>
    <linearGradient
       id="linearGradient5144"
       osb:paint="solid">
      <stop
         style="stop-color:#000000;stop-opacity:1;"
         offset="0"
         id="stop5142" />
    </linearGradient>
    <linearGradient
       id="linearGradient5138"
       osb:paint="solid">
      <stop
         style="stop-color:#000000;stop-opacity:1;"
         offset="0"
         id="stop5136" />
    </linearGradient>
    <linearGradient
       id="linearGradient5132"
       osb:paint="solid">
      <stop
         style="stop-color:#000000;stop-opacity:1;"
         offset="0"
         id="stop5130" />
    </linearGradient>
    <linearGradient
       id="linearGradient5126"
       osb:paint="solid">
      <stop
         style="stop-color:#000000;stop-opacity:1;"
         offset="0"
         id="stop5124" />
    </linearGradient>
    <linearGradient
       id="linearGradient5120"
       osb:paint="solid">
      <stop
         style="stop-color:#000000;stop-opacity:1;"
         offset="0"
         id="stop5118" />
    </linearGradient>
    <linearGradient
       id="linearGradient5114"
       osb:paint="solid">
      <stop
         style="stop-color:#000000;stop-opacity:1;"
         offset="0"
         id="stop5112" />
    </linearGradient>
    <linearGradient
       id="linearGradient5108"
       osb:paint="solid">
      <stop
         style="stop-color:#000000;stop-opacity:1;"
         offset="0"
         id="stop5106" />
    </linearGradient>
    <linearGradient
       id="linearGradient5102"
       osb:paint="solid">
      <stop
         style="stop-color:#000000;stop-opacity:1;"
         offset="0"
         id="stop5100" />
    </linearGradient>
    <linearGradient
       id="linearGradient5096"
       osb:paint="solid">
      <stop
         style="stop-color:#000000;stop-opacity:1;"
         offset="0"
         id="stop5094" />
    </linearGradient>
    <linearGradient
       id="linearGradient5090"
       osb:paint="solid">
      <stop
         style="stop-color:#000000;stop-opacity:1;"
         offset="0"
         id="stop5088" />
    </linearGradient>
    <linearGradient
       id="linearGradient5084"
       osb:paint="solid">
      <stop
         style="stop-color:#000000;stop-opacity:1;"
         offset="0"
         id="stop5082" />
    </linearGradient>
    <linearGradient
       id="linearGradient5078"
       osb:paint="solid">
      <stop
         style="stop-color:#000000;stop-opacity:1;"
         offset="0"
         id="stop5076" />
    </linearGradient>
    <linearGradient
       id="linearGradient5072"
       osb:paint="solid">
      <stop
         style="stop-color:#000000;stop-opacity:1;"
         offset="0"
         id="stop5070" />
    </linearGradient>
    <linearGradient
       id="linearGradient5066"
       osb:paint="solid">
      <stop
         style="stop-color:#000000;stop-opacity:1;"
         offset="0"
         id="stop5064" />
    </linearGradient>
    <linearGradient
       id="linearGradient5060"
       osb:paint="solid">
      <stop
         style="stop-color:#000000;stop-opacity:1;"
         offset="0"
         id="stop5058" />
    </linearGradient>
    <linearGradient
       id="linearGradient5054"
       osb:paint="solid">
      <stop
         style="stop-color:#000000;stop-opacity:1;"
         offset="0"
         id="stop5052" />
    </linearGradient>
    <linearGradient
       id="linearGradient5048"
       osb:paint="solid">
      <stop
         style="stop-color:#9f2b00;stop-opacity:1;"
         offset="0"
         id="stop5046" />
    </linearGradient>
    <linearGradient
       id="linearGradient4939"
       osb:paint="gradient">
      <stop
         style="stop-color:#98c5ff;stop-opacity:1;"
         offset="0"
         id="stop4935" />
      <stop
         style="stop-color:#98c5ff;stop-opacity:0;"
         offset="1"
         id="stop4937" />
    </linearGradient>
    <linearGradient
       inkscape:collect="always"
       xlink:href="#linearGradient5048"
       id="linearGradient5050"
       x1="2.6800001"
       y1="46.3465"
       x2="31.865"
       y2="46.3465"
       gradientUnits="userSpaceOnUse" />
    <linearGradient
       inkscape:collect="always"
       xlink:href="#linearGradient5048"
       id="linearGradient5056"
       x1="20.924"
       y1="44.241501"
       x2="50.108002"
       y2="44.241501"
       gradientUnits="userSpaceOnUse" />
    <linearGradient
       inkscape:collect="always"
       xlink:href="#linearGradient5048"
       id="linearGradient5062"
       x1="39.165001"
       y1="46.3465"
       x2="68.351997"
       y2="46.3465"
       gradientUnits="userSpaceOnUse" />
    <linearGradient
       inkscape:collect="always"
       xlink:href="#linearGradient5048"
       id="linearGradient5068"
       x1="57.414001"
       y1="77.948997"
       x2="86.598"
       y2="77.948997"
       gradientUnits="userSpaceOnUse" />
    <linearGradient
       inkscape:collect="always"
       xlink:href="#linearGradient5048"
       id="linearGradient5074"
       x1="20.924"
       y1="107.4385"
       x2="50.108002"
       y2="107.4385"
       gradientUnits="userSpaceOnUse" />
    <linearGradient
       inkscape:collect="always"
       xlink:href="#linearGradient5048"
       id="linearGradient5080"
       x1="20.924"
       y1="141.14951"
       x2="50.108002"
       y2="141.14951"
       gradientUnits="userSpaceOnUse" />
    <linearGradient
       inkscape:collect="always"
       xlink:href="#linearGradient5048"
       id="linearGradient5086"
       x1="39.165001"
       y1="109.5475"
       x2="68.351997"
       y2="109.5475"
       gradientUnits="userSpaceOnUse" />
    <linearGradient
       inkscape:collect="always"
       xlink:href="#linearGradient5048"
       id="linearGradient5092"
       x1="2.6800001"
       y1="202.237"
       x2="31.865"
       y2="202.237"
       gradientUnits="userSpaceOnUse" />
    <linearGradient
       inkscape:collect="always"
       xlink:href="#linearGradient5048"
       id="linearGradient5098"
       x1="20.924"
       y1="204.34399"
       x2="50.108002"
       y2="204.34399"
       gradientUnits="userSpaceOnUse" />
    <linearGradient
       inkscape:collect="always"
       xlink:href="#linearGradient5048"
       id="linearGradient5104"
       x1="39.165001"
       y1="202.237"
       x2="68.351997"
       y2="202.237"
       gradientUnits="userSpaceOnUse" />
    <linearGradient
       inkscape:collect="always"
       xlink:href="#linearGradient5048"
       id="linearGradient5110"
       x1="57.414001"
       y1="107.4385"
       x2="86.598"
       y2="107.4385"
       gradientUnits="userSpaceOnUse" />
    <linearGradient
       inkscape:collect="always"
       xlink:href="#linearGradient5048"
       id="linearGradient5116"
       x1="39.165001"
       y1="139.0365"
       x2="68.351997"
       y2="139.0365"
       gradientUnits="userSpaceOnUse" />
    <linearGradient
       inkscape:collect="always"
       xlink:href="#linearGradient5048"
       id="linearGradient5122"
       x1="57.414001"
       y1="170.6385"
       x2="86.598"
       y2="170.6385"
       gradientUnits="userSpaceOnUse" />
    <linearGradient
       inkscape:collect="always"
       xlink:href="#linearGradient5048"
       id="linearGradient5128"
       x1="75.651001"
       y1="139.0365"
       x2="104.836"
       y2="139.0365"
       gradientUnits="userSpaceOnUse" />
    <linearGradient
       inkscape:collect="always"
       xlink:href="#linearGradient5048"
       id="linearGradient5134"
       x1="57.414001"
       y1="141.14951"
       x2="86.598"
       y2="141.14951"
       gradientUnits="userSpaceOnUse" />
    <linearGradient
       inkscape:collect="always"
       xlink:href="#linearGradient5048"
       id="linearGradient5140"
       x1="75.651001"
       y1="109.5475"
       x2="104.836"
       y2="109.5475"
       gradientUnits="userSpaceOnUse" />
    <linearGradient
       inkscape:collect="always"
       xlink:href="#linearGradient5048"
       id="linearGradient5146"
       x1="93.898003"
       y1="107.4385"
       x2="123.082"
       y2="107.4385"
       gradientUnits="userSpaceOnUse" />
    <linearGradient
       inkscape:collect="always"
       xlink:href="#linearGradient5048"
       id="linearGradient5152"
       x1="93.898003"
       y1="141.14951"
       x2="123.082"
       y2="141.14951"
       gradientUnits="userSpaceOnUse" />
    <linearGradient
       inkscape:collect="always"
       xlink:href="#linearGradient5168"
       id="linearGradient5158"
       x1="93.898003"
       y1="77.948997"
       x2="123.082"
       y2="77.948997"
       gradientUnits="userSpaceOnUse" />
    <linearGradient
       inkscape:collect="always"
       xlink:href="#linearGradient5168"
       id="linearGradient5164"
       x1="112.147"
       y1="75.838501"
       x2="141.33501"
       y2="75.838501"
       gradientUnits="userSpaceOnUse" />
    <linearGradient
       inkscape:collect="always"
       xlink:href="#linearGradient5168"
       id="linearGradient5170"
       x1="166.875"
       y1="44.241501"
       x2="196.05701"
       y2="44.241501"
       gradientUnits="userSpaceOnUse" />
  </defs>
  <sodipodi:namedview
     id="base"
     pagecolor="#ffffff"
     bordercolor="#666666"
     borderopacity="1.0"
     inkscape:pageopacity="0.0"
     inkscape:pageshadow="2"
     inkscape:zoom="0.49497475"
     inkscape:cx="-11.156719"
     inkscape:cy="-339.41391"
     inkscape:document-units="mm"
     inkscape:current-layer="layer2"
     showgrid="false"
     inkscape:window-width="1920"
     inkscape:window-height="1017"
     inkscape:window-x="-32000"
     inkscape:window-y="-31772"
     inkscape:window-maximized="0" />
  <metadata
     id="metadata123">
    <rdf:RDF>
      <cc:Work
         rdf:about="">
        <dc:format>image/svg+xml</dc:format>
        <dc:type
           rdf:resource="http://purl.org/dc/dcmitype/StillImage" />
        <dc:title />
      </cc:Work>
    </rdf:RDF>
  </metadata>
  <g
     inkscape:groupmode="layer"
     id="layer2"
     inkscape:label="Ebene 2"
     style="display:inline"
     transform="translate(-44.737762,-62.79528)">
    <circle
       style="fill:#98c5ff;fill-opacity:1;stroke-width:0.33383337"
       id="path4933"
       cx="84.737762"
       cy="102.79528"
       r="40" />
    <path
       style="fill:#992b00;fill-opacity:0;stroke-width:1.42857146"
       d="m 274.79026,306.54355 -10.26919,-5.91944 10.5667,-6.1855 c 5.81169,-3.40203 10.91497,-6.18551 11.34062,-6.18551 0.42565,0 0.77391,5.46429 0.77391,12.14286 0,6.67857 -0.48214,12.12579 -1.07143,12.10494 -0.58928,-0.0209 -5.69256,-2.70166 -11.34061,-5.95735 z"
       id="path4947"
       inkscape:connector-curvature="0"
       transform="scale(0.26458333)" />
    <path
       style="fill:#992b00;fill-opacity:0;stroke-width:1.42857146"
       d="m 274.79026,306.54355 -10.26919,-5.91944 10.5667,-6.1855 c 5.81169,-3.40203 10.91497,-6.18551 11.34062,-6.18551 0.42565,0 0.77391,5.46429 0.77391,12.14286 0,6.67857 -0.48214,12.12579 -1.07143,12.10494 -0.58928,-0.0209 -5.69256,-2.70166 -11.34061,-5.95735 z"
       id="path4949"
       inkscape:connector-curvature="0"
       transform="scale(0.26458333)" />
    <path
       style="fill:#992b00;fill-opacity:0;stroke-width:1.42857146"
       d="M 292.91659,300.36217 V 286.5915 l 4.64285,2.78562 c 2.55358,1.5321 7.79877,4.59845 11.656,6.81411 l 7.01314,4.02849 -3.32061,2.23098 c -1.82634,1.22703 -7.07153,4.35748 -11.656,6.95656 l -8.33538,4.72558 z"
       id="path4951"
       inkscape:connector-curvature="0"
       transform="scale(0.26458333)" />
    <path
       style="fill:#992b00;fill-opacity:0;stroke-width:1.42857146"
       d="M 292.91659,300.36217 V 286.5915 l 4.64285,2.78562 c 2.55358,1.5321 7.79877,4.59845 11.656,6.81411 l 7.01314,4.02849 -3.32061,2.23098 c -1.82634,1.22703 -7.07153,4.35748 -11.656,6.95656 l -8.33538,4.72558 z"
       id="path4953"
       inkscape:connector-curvature="0"
       transform="scale(0.26458333)" />
    <path
       style="fill:#992b00;fill-opacity:0;stroke-width:1.42857146"
       d="m 293.25209,539.06567 c -32.28007,-6.14576 -58.90034,-19.84216 -80.74196,-41.54256 -49.73611,-49.41454 -59.10796,-124.85112 -23.01086,-185.22085 8.67883,-14.51471 28.47389,-35.54821 42.73034,-45.40368 85.93132,-59.40428 203.86941,-16.17752 231.70842,84.92595 3.57794,12.99404 3.9336,16.48156 3.9336,38.57143 0,22.13747 -0.34973,25.54938 -3.95374,38.57143 -14.77847,53.39767 -55.31636,93.72032 -107.97433,107.40105 -17.1919,4.46653 -46.72464,5.73715 -62.69147,2.69723 z m -5.06389,-70.30286 c -0.65627,-0.65627 -23.5817,12.1974 -24.55035,13.76472 -0.37237,0.60251 4.93801,4.34768 11.80085,8.32261 l 12.47789,7.22716 0.40917,-14.38389 c 0.22505,-7.91112 0.16314,-14.6299 -0.13756,-14.9306 z m 15.19343,23.55293 c 17.42327,-10.09327 17.13124,-8.50311 3.08039,-16.77298 -6.81199,-4.00932 -12.96786,-7.28966 -13.67972,-7.28966 -0.71186,0 -1.29428,6.75 -1.29428,15 0,8.25 0.36998,15 0.82218,15 0.4522,0 5.43434,-2.67181 11.07143,-5.93736 z m 16.39351,-35.47977 -0.42998,-7.0271 -11.906,6.87056 c -6.5483,3.7788 -11.79616,7.4466 -11.66191,8.15068 0.13426,0.70408 5.49195,4.3402 11.90599,8.08029 l 11.66192,6.80014 0.42998,-7.92374 c 0.2365,-4.35806 0.2365,-11.08593 0,-14.95083 z m -94.00141,-10.81004 c 0,-8.29637 -0.48214,-14.81106 -1.07143,-14.4771 -17.58553,9.96626 -24.63471,14.27703 -24.6,15.04358 0.0459,1.01449 22.80886,14.41123 24.6,14.47793 0.58929,0.022 1.07143,-6.74804 1.07143,-15.04441 z m 16.66319,8.40014 c 6.54953,-3.6763 11.90824,-7.18366 11.90824,-7.79413 0,-0.96308 -12.80766,-8.9032 -22.5,-13.94891 l -3.21429,-1.67332 v 15.05028 c 0,8.27764 0.42701,15.05025 0.94891,15.05025 0.5219,0 6.30761,-3.00788 12.85714,-6.68417 z m 64.12221,-0.58184 c 6.76589,-3.99632 12.08919,-7.47247 11.82954,-7.72482 -0.86811,-0.84367 -25.68885,-15.00917 -26.29904,-15.00917 -0.33089,0 -0.60161,6.75 -0.60161,15 0,8.73112 0.57872,15 1.38474,15 0.76161,0 6.92047,-3.2697 13.68637,-7.26601 z m 46.35746,-6.7816 c 0,-7.7262 -0.37079,-14.41842 -0.82397,-14.8716 -0.63539,-0.63539 -23.8513,11.7655 -26.07795,13.92964 -0.70805,0.6882 23.04665,14.76826 25.1162,14.88706 1.31446,0.0754 1.78572,-3.60472 1.78572,-13.9451 z m 15.76991,7.50031 c 6.24309,-3.601 11.6802,-7.07983 12.08247,-7.73073 0.40229,-0.65088 -3.61065,-3.59688 -8.91763,-6.54665 -5.30697,-2.94979 -11.09547,-6.29489 -12.86332,-7.43357 l -3.21429,-2.07035 v 15.1643 c 0,8.34037 0.35139,15.1643 0.78084,15.1643 0.42947,0 5.88883,-2.94628 12.13193,-6.5473 z M 211.30111,435.95791 c 6.38851,-3.6195 11.61548,-7.08665 11.61548,-7.70481 0,-1.20726 -22.4045,-14.28571 -24.47262,-14.28571 -0.68292,0 -1.24167,6.42857 -1.24167,14.28571 0,7.85714 0.55875,14.28571 1.24167,14.28571 0.68291,0 6.46863,-2.9614 12.85714,-6.5809 z m 63.72661,-0.20481 c 6.65781,-3.73214 12.10511,-7.10714 12.10511,-7.5 0,-0.98666 -23.87083,-14.28571 -25.6418,-14.28571 -0.86096,0 -1.43159,5.69425 -1.43159,14.28571 0,8.59146 0.57063,14.28571 1.43159,14.28571 0.78737,0 6.87888,-3.05357 13.53669,-6.78571 z m 45.03172,-7.5 c 0,-7.85714 -0.39572,-14.28571 -0.8794,-14.28571 -1.38644,0 -24.81634,13.48922 -24.81333,14.28571 0.003,0.8453 23.06139,14.18607 24.62131,14.24514 0.58928,0.0223 1.07142,-6.388 1.07142,-14.24514 z m 18.01283,7.5 c 6.58257,-3.73214 11.96832,-7.10714 11.96832,-7.5 0,-1.0482 -23.65706,-14.28571 -25.53032,-14.28571 -1.06628,0 -1.59368,4.72757 -1.59368,14.28571 0,9.55814 0.5274,14.28571 1.59368,14.28571 0.87653,0 6.97943,-3.05357 13.562,-6.78571 z m 46.27289,-7.5 c 0,-8.7781 -0.56297,-14.28571 -1.46026,-14.28571 -0.80314,0 -6.9798,3.15391 -13.7259,7.00871 -12.13771,6.9356 -12.23051,7.03117 -8.89688,9.16296 9.63175,6.15933 20.71957,12.29868 22.29732,12.3461 1.3131,0.0394 1.78572,-3.72725 1.78572,-14.23206 z m 16.66318,7.60154 c 6.54955,-3.6763 11.90825,-7.097 11.90825,-7.60154 0,-0.95707 -23.10622,-14.28571 -24.76539,-14.28571 -0.52188,0 -0.9489,6.42857 -0.9489,14.28571 0,7.85714 0.42702,14.28571 0.9489,14.28571 0.5219,0 6.30762,-3.00788 12.85714,-6.68417 z M 288.09527,395.81273 c -0.70454,-0.70453 -23.33513,12.04174 -24.37926,13.73118 -0.35806,0.57936 4.94059,4.32259 11.77478,8.31829 l 12.4258,7.2649 0.40917,-14.33734 c 0.22505,-7.88556 0.12133,-14.62522 -0.23049,-14.97703 z m 18.05468,21.85831 c 6.80435,-3.85584 12.08154,-7.47985 11.72708,-8.05337 -0.85521,-1.38377 -23.55573,-14.22171 -25.14735,-14.22171 -0.68292,0 -1.24166,6.80357 -1.24166,15.11904 0,8.31549 0.51534,14.90477 1.1452,14.64286 0.62985,-0.2619 6.71239,-3.63097 13.51673,-7.48682 z m 46.76664,-8.07368 c 0,-7.81077 -0.55875,-14.2014 -1.24166,-14.2014 -1.57224,0 -24.28694,12.82953 -25.13009,14.19375 -0.76662,1.24045 23.7965,15.59552 25.30032,14.78589 0.58928,-0.31726 1.07143,-6.96747 1.07143,-14.77824 z m 18.92857,6.62675 c 5.30357,-2.94787 9.63254,-5.78658 9.61993,-6.30825 -0.0196,-0.81146 -20.69212,-12.90989 -24.40325,-14.2818 -0.71451,-0.26415 -1.28811,6.32951 -1.28811,14.80715 v 15.28335 l 3.21429,-2.07035 c 1.76785,-1.13868 7.55357,-4.48222 12.85714,-7.4301 z m 60.71428,1.38106 c 6.48215,-3.70974 11.78148,-7.17087 11.77629,-7.69138 -0.01,-0.9568 -23.19886,-14.51783 -24.82546,-14.51783 -0.48367,0 -0.8794,6.78794 -0.8794,15.08431 0,8.29637 0.48215,14.81106 1.07143,14.4771 0.58929,-0.33397 6.375,-3.64246 12.85714,-7.3522 z M 256.706,377.28061 c -0.33019,-0.33019 -6.20451,2.70977 -13.05404,6.75548 -6.84953,4.04571 -11.90636,7.89277 -11.23739,8.54901 0.66897,0.65626 6.35916,4.11911 12.64487,7.69526 l 11.42858,6.50207 0.40917,-14.45073 c 0.22504,-7.9479 0.13901,-14.72089 -0.19119,-15.05109 z m 17.65041,22.24012 c 7.06524,-4.01709 12.84589,-7.50449 12.84589,-7.74977 0,-0.6268 -25.14051,-14.94643 -26.24096,-14.94643 -0.49604,0 -0.9019,6.75 -0.9019,15 0,8.25 0.3265,15 0.72554,15 0.39905,0 6.50619,-3.28672 13.57143,-7.3038 z m 45.70303,-7.77993 v -15.08373 l -9.98515,5.44087 c -18.20107,9.9177 -18.00085,8.89903 -3.40658,17.3317 6.97259,4.02883 12.83816,7.34083 13.03459,7.36002 0.19643,0.0191 0.35714,-6.75282 0.35714,-15.04886 z m 18.31619,7.23416 c 6.5382,-3.74207 11.35963,-7.32136 10.71429,-7.95397 -2.73728,-2.68335 -23.94289,-13.97776 -25.00786,-13.31957 -1.36544,0.84388 -1.59776,26.78607 -0.25193,28.13189 0.50244,0.50245 1.30601,0.69572 1.78571,0.42948 0.4797,-0.26623 6.2216,-3.54576 12.75979,-7.28783 z m 108.82667,-7.15043 c 0,-8.25 -0.48214,-14.97692 -1.07143,-14.9487 -2.1429,0.1026 -23.65977,13.55777 -23.79228,14.87806 -0.12343,1.23001 21.24597,14.65552 23.79228,14.9477 0.58929,0.0676 1.07143,-6.62706 1.07143,-14.87706 z M 288.63087,373.11199 v -15.14111 l -5.35714,3.17435 c -2.94643,1.74588 -8.7751,5.10928 -12.95261,7.47421 -4.99137,2.82566 -7.11257,4.78276 -6.187,5.70834 1.70293,1.70292 21.91233,13.60026 23.42532,13.79056 0.58929,0.0742 1.07143,-6.67874 1.07143,-15.00635 z m 14.82413,9.50755 c 17.2818,-9.56753 17.1049,-8.36515 2.4854,-16.89239 -7.04763,-4.11073 -13.18253,-7.47405 -13.63313,-7.47405 -0.45059,0 -0.81925,6.75 -0.81925,15 0,8.25 0.403,15 0.89556,15 0.49255,0 5.4747,-2.5351 11.07142,-5.63356 z m 49.46159,-9.36644 c 0,-8.25 -0.36999,-15 -0.82219,-15 -0.86293,0 -19.43556,10.59325 -23.9337,13.65103 -2.34593,1.59474 -1.39674,2.508 9.28572,8.93425 6.54431,3.93688 12.70231,7.21572 13.68445,7.28633 1.32335,0.0951 1.78572,-3.75552 1.78572,-14.87161 z m 16.06838,8.13304 c 6.05345,-3.38396 11.34539,-6.70135 11.75985,-7.37197 0.61741,-0.99899 -5.1486,-4.69568 -23.89966,-15.32248 -0.58929,-0.33396 -1.07143,6.2343 -1.07143,14.59615 0,8.36185 0.49611,14.98907 1.10249,14.72716 0.60635,-0.2619 6.0553,-3.24489 12.10875,-6.62886 z m 63.76823,-0.2759 c 6.35034,-3.53571 11.55642,-6.88235 11.56903,-7.43698 0.02,-0.88034 -13.12773,-8.98023 -22.47707,-13.84737 l -3.21429,-1.67332 v 15.16932 c 0,8.40991 0.57399,14.95711 1.28812,14.69311 0.70847,-0.2619 6.48387,-3.36904 12.83421,-6.90476 z M 271.76862,364.50472 c 4.95281,-2.84732 10.52168,-6.12238 12.37526,-7.27791 l 3.37015,-2.10097 -4.08444,-2.46784 c -2.24644,-1.3573 -8.42372,-4.88757 -13.72729,-7.84503 l -9.64286,-5.3772 v 15.12295 c 0,8.55885 0.58685,15.12295 1.35204,15.12295 0.74362,0 5.40433,-2.32963 10.35714,-5.17695 z m 48.29082,-9.76702 v -14.94397 l -12.83812,7.44397 c -7.06097,4.09418 -12.83104,7.7654 -12.82236,8.15826 0.0181,0.81833 22.96291,14.06817 24.58906,14.19931 0.58928,0.0475 1.07142,-6.63839 1.07142,-14.85757 z m 64.28572,-0.0927 v -15.0367 l -3.92857,2.04702 c -2.16072,1.12587 -8.32686,4.62461 -13.70255,7.77499 -9.68075,5.67335 -9.74205,5.74787 -6.42857,7.81546 10.75563,6.71141 20.72192,12.22533 22.27397,12.32324 1.3226,0.0835 1.78572,-3.78697 1.78572,-14.92403 z m 62.85714,-0.10442 v -15.14111 l -5.35714,3.17434 c -2.94643,1.74589 -8.73214,5.08504 -12.85714,7.42034 -4.125,2.33529 -7.5,4.70762 -7.5,5.27183 0,1.06573 22.75625,14.35876 24.64285,14.39508 0.58929,0.0113 1.07143,-6.79287 1.07143,-15.12048 z m -72.5,-12.98131 c 3.73214,-2.06813 6.76773,-4.14021 6.74573,-4.60463 -0.0425,-0.89663 -23.2917,-14.41581 -24.79121,-14.41581 -0.4857,0 -0.88309,6.78644 -0.88309,15.08098 v 15.08097 l 6.07143,-3.69063 c 3.33928,-2.02985 9.125,-5.38274 12.85714,-7.45087 z m 60,1.80771 c 5.30357,-2.94787 9.64076,-5.78658 9.6382,-6.30825 -0.005,-1.00371 -23.00856,-14.5199 -24.71188,-14.5199 -0.54876,0 -0.99775,6.82394 -0.99775,15.1643 v 15.1643 l 3.21429,-2.07034 c 1.76786,-1.13868 7.55357,-4.48223 12.85714,-7.4301 z M 319.59682,304.45714 c -0.31168,-0.31167 -6.16472,2.72814 -13.00676,6.75514 -6.84205,4.02701 -12.09259,7.66932 -11.66787,8.09404 0.42472,0.42472 6.09364,3.81641 12.5976,7.53709 l 11.82537,6.76487 0.40917,-14.29223 c 0.22504,-7.86072 0.15417,-14.54723 -0.15751,-14.85891 z m -30.96595,-4.14549 c 0,-8.29637 -0.48214,-14.81107 -1.07143,-14.4771 -18.55194,10.51395 -24.62483,14.34595 -23.90636,15.08494 1.36217,1.40108 22.69847,14.20906 23.90636,14.35077 0.58929,0.0691 1.07143,-6.66224 1.07143,-14.95861 z m 18.92857,7.00775 c 6.08929,-3.56438 11.07143,-6.66112 11.07143,-6.88165 0,-0.59399 -25.21871,-15.04179 -26.25552,-15.04179 -0.48803,0 -0.88733,6.81878 -0.88733,15.15284 0,17.54097 -1.35392,16.97058 16.07142,6.7706 z"
       id="path4955"
       inkscape:connector-curvature="0"
       transform="scale(0.26458333)" />
    <path
       style="fill:#992b00;fill-opacity:0;stroke-width:1.42857146"
       d="m 293.25209,539.06567 c -32.28007,-6.14576 -58.90034,-19.84216 -80.74196,-41.54256 -49.73611,-49.41454 -59.10796,-124.85112 -23.01086,-185.22085 8.67883,-14.51471 28.47389,-35.54821 42.73034,-45.40368 85.93132,-59.40428 203.86941,-16.17752 231.70842,84.92595 3.57794,12.99404 3.9336,16.48156 3.9336,38.57143 0,22.13747 -0.34973,25.54938 -3.95374,38.57143 -14.77847,53.39767 -55.31636,93.72032 -107.97433,107.40105 -17.1919,4.46653 -46.72464,5.73715 -62.69147,2.69723 z m -5.06389,-70.30286 c -0.65627,-0.65627 -23.5817,12.1974 -24.55035,13.76472 -0.37237,0.60251 4.93801,4.34768 11.80085,8.32261 l 12.47789,7.22716 0.40917,-14.38389 c 0.22505,-7.91112 0.16314,-14.6299 -0.13756,-14.9306 z m 15.19343,23.55293 c 17.42327,-10.09327 17.13124,-8.50311 3.08039,-16.77298 -6.81199,-4.00932 -12.96786,-7.28966 -13.67972,-7.28966 -0.71186,0 -1.29428,6.75 -1.29428,15 0,8.25 0.36998,15 0.82218,15 0.4522,0 5.43434,-2.67181 11.07143,-5.93736 z m 16.39351,-35.47977 -0.42998,-7.0271 -11.906,6.87056 c -6.5483,3.7788 -11.79616,7.4466 -11.66191,8.15068 0.13426,0.70408 5.49195,4.3402 11.90599,8.08029 l 11.66192,6.80014 0.42998,-7.92374 c 0.2365,-4.35806 0.2365,-11.08593 0,-14.95083 z m -94.00141,-10.81004 c 0,-8.29637 -0.48214,-14.81106 -1.07143,-14.4771 -17.58553,9.96626 -24.63471,14.27703 -24.6,15.04358 0.0459,1.01449 22.80886,14.41123 24.6,14.47793 0.58929,0.022 1.07143,-6.74804 1.07143,-15.04441 z m 16.66319,8.40014 c 6.54953,-3.6763 11.90824,-7.18366 11.90824,-7.79413 0,-0.96308 -12.80766,-8.9032 -22.5,-13.94891 l -3.21429,-1.67332 v 15.05028 c 0,8.27764 0.42701,15.05025 0.94891,15.05025 0.5219,0 6.30761,-3.00788 12.85714,-6.68417 z m 64.12221,-0.58184 c 6.76589,-3.99632 12.08919,-7.47247 11.82954,-7.72482 -0.86811,-0.84367 -25.68885,-15.00917 -26.29904,-15.00917 -0.33089,0 -0.60161,6.75 -0.60161,15 0,8.73112 0.57872,15 1.38474,15 0.76161,0 6.92047,-3.2697 13.68637,-7.26601 z m 46.35746,-6.7816 c 0,-7.7262 -0.37079,-14.41842 -0.82397,-14.8716 -0.63539,-0.63539 -23.8513,11.7655 -26.07795,13.92964 -0.70805,0.6882 23.04665,14.76826 25.1162,14.88706 1.31446,0.0754 1.78572,-3.60472 1.78572,-13.9451 z m 15.76991,7.50031 c 6.24309,-3.601 11.6802,-7.07983 12.08247,-7.73073 0.40229,-0.65088 -3.61065,-3.59688 -8.91763,-6.54665 -5.30697,-2.94979 -11.09547,-6.29489 -12.86332,-7.43357 l -3.21429,-2.07035 v 15.1643 c 0,8.34037 0.35139,15.1643 0.78084,15.1643 0.42947,0 5.88883,-2.94628 12.13193,-6.5473 z M 211.30111,435.95791 c 6.38851,-3.6195 11.61548,-7.08665 11.61548,-7.70481 0,-1.20726 -22.4045,-14.28571 -24.47262,-14.28571 -0.68292,0 -1.24167,6.42857 -1.24167,14.28571 0,7.85714 0.55875,14.28571 1.24167,14.28571 0.68291,0 6.46863,-2.9614 12.85714,-6.5809 z m 63.72661,-0.20481 c 6.65781,-3.73214 12.10511,-7.10714 12.10511,-7.5 0,-0.98666 -23.87083,-14.28571 -25.6418,-14.28571 -0.86096,0 -1.43159,5.69425 -1.43159,14.28571 0,8.59146 0.57063,14.28571 1.43159,14.28571 0.78737,0 6.87888,-3.05357 13.53669,-6.78571 z m 45.03172,-7.5 c 0,-7.85714 -0.39572,-14.28571 -0.8794,-14.28571 -1.38644,0 -24.81634,13.48922 -24.81333,14.28571 0.003,0.8453 23.06139,14.18607 24.62131,14.24514 0.58928,0.0223 1.07142,-6.388 1.07142,-14.24514 z m 18.01283,7.5 c 6.58257,-3.73214 11.96832,-7.10714 11.96832,-7.5 0,-1.0482 -23.65706,-14.28571 -25.53032,-14.28571 -1.06628,0 -1.59368,4.72757 -1.59368,14.28571 0,9.55814 0.5274,14.28571 1.59368,14.28571 0.87653,0 6.97943,-3.05357 13.562,-6.78571 z m 46.27289,-7.5 c 0,-8.7781 -0.56297,-14.28571 -1.46026,-14.28571 -0.80314,0 -6.9798,3.15391 -13.7259,7.00871 -12.13771,6.9356 -12.23051,7.03117 -8.89688,9.16296 9.63175,6.15933 20.71957,12.29868 22.29732,12.3461 1.3131,0.0394 1.78572,-3.72725 1.78572,-14.23206 z m 16.66318,7.60154 c 6.54955,-3.6763 11.90825,-7.097 11.90825,-7.60154 0,-0.95707 -23.10622,-14.28571 -24.76539,-14.28571 -0.52188,0 -0.9489,6.42857 -0.9489,14.28571 0,7.85714 0.42702,14.28571 0.9489,14.28571 0.5219,0 6.30762,-3.00788 12.85714,-6.68417 z M 288.09527,395.81273 c -0.70454,-0.70453 -23.33513,12.04174 -24.37926,13.73118 -0.35806,0.57936 4.94059,4.32259 11.77478,8.31829 l 12.4258,7.2649 0.40917,-14.33734 c 0.22505,-7.88556 0.12133,-14.62522 -0.23049,-14.97703 z m 18.05468,21.85831 c 6.80435,-3.85584 12.08154,-7.47985 11.72708,-8.05337 -0.85521,-1.38377 -23.55573,-14.22171 -25.14735,-14.22171 -0.68292,0 -1.24166,6.80357 -1.24166,15.11904 0,8.31549 0.51534,14.90477 1.1452,14.64286 0.62985,-0.2619 6.71239,-3.63097 13.51673,-7.48682 z m 46.76664,-8.07368 c 0,-7.81077 -0.55875,-14.2014 -1.24166,-14.2014 -1.57224,0 -24.28694,12.82953 -25.13009,14.19375 -0.76662,1.24045 23.7965,15.59552 25.30032,14.78589 0.58928,-0.31726 1.07143,-6.96747 1.07143,-14.77824 z m 18.92857,6.62675 c 5.30357,-2.94787 9.63254,-5.78658 9.61993,-6.30825 -0.0196,-0.81146 -20.69212,-12.90989 -24.40325,-14.2818 -0.71451,-0.26415 -1.28811,6.32951 -1.28811,14.80715 v 15.28335 l 3.21429,-2.07035 c 1.76785,-1.13868 7.55357,-4.48222 12.85714,-7.4301 z m 60.71428,1.38106 c 6.48215,-3.70974 11.78148,-7.17087 11.77629,-7.69138 -0.01,-0.9568 -23.19886,-14.51783 -24.82546,-14.51783 -0.48367,0 -0.8794,6.78794 -0.8794,15.08431 0,8.29637 0.48215,14.81106 1.07143,14.4771 0.58929,-0.33397 6.375,-3.64246 12.85714,-7.3522 z M 256.706,377.28061 c -0.33019,-0.33019 -6.20451,2.70977 -13.05404,6.75548 -6.84953,4.04571 -11.90636,7.89277 -11.23739,8.54901 0.66897,0.65626 6.35916,4.11911 12.64487,7.69526 l 11.42858,6.50207 0.40917,-14.45073 c 0.22504,-7.9479 0.13901,-14.72089 -0.19119,-15.05109 z m 17.65041,22.24012 c 7.06524,-4.01709 12.84589,-7.50449 12.84589,-7.74977 0,-0.6268 -25.14051,-14.94643 -26.24096,-14.94643 -0.49604,0 -0.9019,6.75 -0.9019,15 0,8.25 0.3265,15 0.72554,15 0.39905,0 6.50619,-3.28672 13.57143,-7.3038 z m 45.70303,-7.77993 v -15.08373 l -9.98515,5.44087 c -18.20107,9.9177 -18.00085,8.89903 -3.40658,17.3317 6.97259,4.02883 12.83816,7.34083 13.03459,7.36002 0.19643,0.0191 0.35714,-6.75282 0.35714,-15.04886 z m 18.31619,7.23416 c 6.5382,-3.74207 11.35963,-7.32136 10.71429,-7.95397 -2.73728,-2.68335 -23.94289,-13.97776 -25.00786,-13.31957 -1.36544,0.84388 -1.59776,26.78607 -0.25193,28.13189 0.50244,0.50245 1.30601,0.69572 1.78571,0.42948 0.4797,-0.26623 6.2216,-3.54576 12.75979,-7.28783 z m 108.82667,-7.15043 c 0,-8.25 -0.48214,-14.97692 -1.07143,-14.9487 -2.1429,0.1026 -23.65977,13.55777 -23.79228,14.87806 -0.12343,1.23001 21.24597,14.65552 23.79228,14.9477 0.58929,0.0676 1.07143,-6.62706 1.07143,-14.87706 z M 288.63087,373.11199 v -15.14111 l -5.35714,3.17435 c -2.94643,1.74588 -8.7751,5.10928 -12.95261,7.47421 -4.99137,2.82566 -7.11257,4.78276 -6.187,5.70834 1.70293,1.70292 21.91233,13.60026 23.42532,13.79056 0.58929,0.0742 1.07143,-6.67874 1.07143,-15.00635 z m 14.82413,9.50755 c 17.2818,-9.56753 17.1049,-8.36515 2.4854,-16.89239 -7.04763,-4.11073 -13.18253,-7.47405 -13.63313,-7.47405 -0.45059,0 -0.81925,6.75 -0.81925,15 0,8.25 0.403,15 0.89556,15 0.49255,0 5.4747,-2.5351 11.07142,-5.63356 z m 49.46159,-9.36644 c 0,-8.25 -0.36999,-15 -0.82219,-15 -0.86293,0 -19.43556,10.59325 -23.9337,13.65103 -2.34593,1.59474 -1.39674,2.508 9.28572,8.93425 6.54431,3.93688 12.70231,7.21572 13.68445,7.28633 1.32335,0.0951 1.78572,-3.75552 1.78572,-14.87161 z m 16.06838,8.13304 c 6.05345,-3.38396 11.34539,-6.70135 11.75985,-7.37197 0.61741,-0.99899 -5.1486,-4.69568 -23.89966,-15.32248 -0.58929,-0.33396 -1.07143,6.2343 -1.07143,14.59615 0,8.36185 0.49611,14.98907 1.10249,14.72716 0.60635,-0.2619 6.0553,-3.24489 12.10875,-6.62886 z m 63.76823,-0.2759 c 6.35034,-3.53571 11.55642,-6.88235 11.56903,-7.43698 0.02,-0.88034 -13.12773,-8.98023 -22.47707,-13.84737 l -3.21429,-1.67332 v 15.16932 c 0,8.40991 0.57399,14.95711 1.28812,14.69311 0.70847,-0.2619 6.48387,-3.36904 12.83421,-6.90476 z M 271.76862,364.50472 c 4.95281,-2.84732 10.52168,-6.12238 12.37526,-7.27791 l 3.37015,-2.10097 -4.08444,-2.46784 c -2.24644,-1.3573 -8.42372,-4.88757 -13.72729,-7.84503 l -9.64286,-5.3772 v 15.12295 c 0,8.55885 0.58685,15.12295 1.35204,15.12295 0.74362,0 5.40433,-2.32963 10.35714,-5.17695 z m 48.29082,-9.76702 v -14.94397 l -12.83812,7.44397 c -7.06097,4.09418 -12.83104,7.7654 -12.82236,8.15826 0.0181,0.81833 22.96291,14.06817 24.58906,14.19931 0.58928,0.0475 1.07142,-6.63839 1.07142,-14.85757 z m 64.28572,-0.0927 v -15.0367 l -3.92857,2.04702 c -2.16072,1.12587 -8.32686,4.62461 -13.70255,7.77499 -9.68075,5.67335 -9.74205,5.74787 -6.42857,7.81546 10.75563,6.71141 20.72192,12.22533 22.27397,12.32324 1.3226,0.0835 1.78572,-3.78697 1.78572,-14.92403 z m 62.85714,-0.10442 v -15.14111 l -5.35714,3.17434 c -2.94643,1.74589 -8.73214,5.08504 -12.85714,7.42034 -4.125,2.33529 -7.5,4.70762 -7.5,5.27183 0,1.06573 22.75625,14.35876 24.64285,14.39508 0.58929,0.0113 1.07143,-6.79287 1.07143,-15.12048 z m -72.5,-12.98131 c 3.73214,-2.06813 6.76773,-4.14021 6.74573,-4.60463 -0.0425,-0.89663 -23.2917,-14.41581 -24.79121,-14.41581 -0.4857,0 -0.88309,6.78644 -0.88309,15.08098 v 15.08097 l 6.07143,-3.69063 c 3.33928,-2.02985 9.125,-5.38274 12.85714,-7.45087 z m 60,1.80771 c 5.30357,-2.94787 9.64076,-5.78658 9.6382,-6.30825 -0.005,-1.00371 -23.00856,-14.5199 -24.71188,-14.5199 -0.54876,0 -0.99775,6.82394 -0.99775,15.1643 v 15.1643 l 3.21429,-2.07034 c 1.76786,-1.13868 7.55357,-4.48223 12.85714,-7.4301 z M 319.59682,304.45714 c -0.31168,-0.31167 -6.16472,2.72814 -13.00676,6.75514 -6.84205,4.02701 -12.09259,7.66932 -11.66787,8.09404 0.42472,0.42472 6.09364,3.81641 12.5976,7.53709 l 11.82537,6.76487 0.40917,-14.29223 c 0.22504,-7.86072 0.15417,-14.54723 -0.15751,-14.85891 z m -30.96595,-4.14549 c 0,-8.29637 -0.48214,-14.81107 -1.07143,-14.4771 -18.55194,10.51395 -24.62483,14.34595 -23.90636,15.08494 1.36217,1.40108 22.69847,14.20906 23.90636,14.35077 0.58929,0.0691 1.07143,-6.66224 1.07143,-14.95861 z m 18.92857,7.00775 c 6.08929,-3.56438 11.07143,-6.66112 11.07143,-6.88165 0,-0.59399 -25.21871,-15.04179 -26.25552,-15.04179 -0.48803,0 -0.88733,6.81878 -0.88733,15.15284 0,17.54097 -1.35392,16.97058 16.07142,6.7706 z"
       id="path4957"
       inkscape:connector-curvature="0"
       transform="scale(0.26458333)" />
  </g>
  <g
     inkscape:label="Ebene 1"
     inkscape:groupmode="layer"
     id="layer1"
     transform="translate(-44.737762,-62.79528)">
    <g
       id="g417"
       transform="matrix(0.22913589,0.13229167,-0.13229167,0.22913589,76.821809,65.642918)">
      <polygon
         id="polygon245"
         points="214.304,63.201 185.122,63.201 199.71,88.476 " />
      <polygon
         id="polygon247"
         points="141.335,63.201 112.147,63.201 126.741,88.476 "
         style="fill:url(#linearGradient5164);fill-opacity:1" />
      <polygon
         id="polygon249"
         points="72.008,65.309 57.414,90.589 86.598,90.589 "
         style="fill:url(#linearGradient5068);fill-opacity:1" />
      <polygon
         id="polygon251"
         points="108.492,65.309 93.898,90.589 123.082,90.589 "
         style="fill:url(#linearGradient5158);fill-opacity:1" />
      <polygon
         id="polygon253"
         points="196.057,94.8 166.875,94.8 181.475,120.077 " />
      <polygon
         id="polygon255"
         points="159.569,94.8 130.389,94.8 144.981,120.077 " />
      <polygon
         id="polygon257"
         points="123.082,94.8 93.898,94.8 108.492,120.077 "
         style="fill:url(#linearGradient5146);fill-opacity:1" />
      <polygon
         id="polygon259"
         points="86.598,94.8 57.414,94.8 72.008,120.077 "
         style="fill:url(#linearGradient5110);fill-opacity:1" />
      <polygon
         id="polygon261"
         points="50.108,94.8 20.924,94.8 35.515,120.077 "
         style="fill:url(#linearGradient5074);fill-opacity:1" />
      <polygon
         id="polygon263"
         points="53.764,96.907 39.165,122.188 68.352,122.188 "
         style="fill:url(#linearGradient5086);fill-opacity:1" />
      <polygon
         id="polygon265"
         points="90.248,96.907 75.651,122.188 104.836,122.188 "
         style="fill:url(#linearGradient5140);fill-opacity:1" />
      <polygon
         id="polygon267"
         points="126.741,96.907 112.147,122.188 141.335,122.188 " />
      <polygon
         id="polygon269"
         points="163.229,96.907 148.629,122.188 177.816,122.188 " />
      <polygon
         id="polygon271"
         points="177.816,0 148.629,0 163.229,25.281 " />
      <polygon
         id="polygon273"
         points="181.475,2.104 166.875,27.388 196.057,27.388 " />
      <polygon
         id="polygon275"
         points="196.057,31.6 166.875,31.6 181.475,56.883 "
         style="fill:url(#linearGradient5170);fill-opacity:1" />
      <polygon
         id="polygon277"
         points="123.082,31.6 93.898,31.6 108.492,56.883 " />
      <polygon
         id="polygon279"
         points="50.108,31.6 20.924,31.6 35.515,56.883 "
         style="fill:url(#linearGradient5056);fill-opacity:1" />
      <polygon
         id="polygon281"
         points="17.28,33.712 2.68,58.981 31.865,58.981 "
         style="fill:url(#linearGradient5050);fill-opacity:1" />
      <polygon
         id="polygon283"
         points="53.764,33.712 39.165,58.981 68.352,58.981 "
         style="fill:url(#linearGradient5062);fill-opacity:1" />
      <polygon
         id="polygon285"
         points="126.741,33.712 112.147,58.981 141.335,58.981 " />
      <polygon
         id="polygon287"
         points="199.71,33.712 185.122,58.981 214.304,58.981 " />
      <polygon
         id="polygon289"
         points="177.816,126.396 148.629,126.396 163.229,151.677 " />
      <polygon
         id="polygon291"
         points="141.335,126.396 112.147,126.396 126.741,151.677 " />
      <polygon
         id="polygon293"
         points="104.836,126.396 75.651,126.396 90.248,151.677 "
         style="fill:url(#linearGradient5128);fill-opacity:1" />
      <polygon
         id="polygon295"
         points="68.352,126.396 39.165,126.396 53.764,151.677 "
         style="fill:url(#linearGradient5116);fill-opacity:1" />
      <polygon
         id="polygon297"
         points="35.515,128.513 20.924,153.786 50.108,153.786 "
         style="fill:url(#linearGradient5080);fill-opacity:1" />
      <polygon
         id="polygon299"
         points="72.008,128.513 57.414,153.786 86.598,153.786 "
         style="fill:url(#linearGradient5134);fill-opacity:1" />
      <polygon
         id="polygon301"
         points="108.492,128.513 93.898,153.786 123.082,153.786 "
         style="fill:url(#linearGradient5152);fill-opacity:1" />
      <polygon
         id="polygon303"
         points="144.981,128.513 130.389,153.786 159.569,153.786 " />
      <polygon
         id="polygon305"
         points="123.082,158.007 93.898,158.007 108.492,183.27 " />
      <polygon
         id="polygon307"
         points="86.598,158.007 57.414,158.007 72.008,183.27 "
         style="fill:url(#linearGradient5122);fill-opacity:1" />
      <polygon
         id="polygon309"
         points="126.741,160.1 112.147,185.386 141.335,185.386 " />
      <polygon
         id="polygon311"
         points="141.335,189.594 112.147,189.594 126.741,214.88 " />
      <polygon
         id="polygon313"
         points="68.352,189.594 39.165,189.594 53.764,214.88 "
         style="fill:url(#linearGradient5104);fill-opacity:1" />
      <polygon
         id="polygon315"
         points="31.865,189.594 2.68,189.594 17.28,214.88 "
         style="fill:url(#linearGradient5092);fill-opacity:1" />
      <polygon
         id="polygon317"
         points="35.515,191.704 20.924,216.984 50.108,216.984 "
         style="fill:url(#linearGradient5098);fill-opacity:1" />
      <polygon
         id="polygon319"
         points="108.492,191.704 93.898,216.984 123.082,216.984 " />
      <g
         id="g325" />
      <g
         id="g327" />
      <g
         id="g329" />
      <g
         id="g331" />
      <g
         id="g333" />
      <g
         id="g335" />
      <g
         id="g337" />
      <g
         id="g339" />
      <g
         id="g341" />
      <g
         id="g343" />
      <g
         id="g345" />
      <g
         id="g347" />
      <g
         id="g349" />
      <g
         id="g351" />
      <g
         id="g353" />
      <path
         style="fill:#982b00;fill-opacity:0;stroke-width:0.50507629"
         d="m 275.86565,307.57735 c -10.47539,-6.02076 -11.86029,-6.95949 -11.11168,-7.53193 1.7628,-1.34796 22.8941,-13.33592 23.11608,-13.11394 0.12733,0.12733 0.17098,6.37229 0.097,13.87768 l -0.13453,13.64617 z"
         id="path5036"
         inkscape:connector-curvature="0"
         transform="rotate(-30,-317.78438,665.85033)" />
      <path
         style="fill:#982b00;fill-opacity:0;stroke-width:0.50507629"
         d="m 293.13582,300.67168 c 0,-7.62406 0.12393,-13.86192 0.27541,-13.86192 0.34673,0 23.09258,13.0951 23.54058,13.55263 0.18147,0.18533 -5.10289,3.44967 -11.74303,7.25409 l -12.07296,6.91711 z"
         id="path5038"
         inkscape:connector-curvature="0"
         transform="rotate(-30,-317.78438,665.85033)" />
      <path
         style="fill:#9f2b00;fill-opacity:0;stroke-width:0.50507629"
         d="m 275.86565,307.57735 c -10.47539,-6.02076 -11.86029,-6.95949 -11.11168,-7.53193 1.7628,-1.34796 22.8941,-13.33592 23.11608,-13.11394 0.12733,0.12733 0.17098,6.37229 0.097,13.87768 l -0.13453,13.64617 z"
         id="path5040"
         inkscape:connector-curvature="0"
         transform="rotate(-30,-317.78438,665.85033)" />
      <path
         style="fill:#9f2b00;fill-opacity:0;stroke-width:0.50507629"
         d="m 275.86565,307.57735 c -10.47539,-6.02076 -11.86029,-6.95949 -11.11168,-7.53193 1.7628,-1.34796 22.8941,-13.33592 23.11608,-13.11394 0.12733,0.12733 0.17098,6.37229 0.097,13.87768 l -0.13453,13.64617 z"
         id="path5042"
         inkscape:connector-curvature="0"
         transform="rotate(-30,-317.78438,665.85033)" />
      <path
         style="fill:#9f2b00;fill-opacity:0;stroke-width:0.50507629"
         d="m 275.86565,307.57735 c -10.47539,-6.02076 -11.86029,-6.95949 -11.11168,-7.53193 1.7628,-1.34796 22.8941,-13.33592 23.11608,-13.11394 0.12733,0.12733 0.17098,6.37229 0.097,13.87768 l -0.13453,13.64617 z"
         id="path5044"
         inkscape:connector-curvature="0"
         transform="rotate(-30,-317.78438,665.85033)" />
    </g>
    <ellipse
       id="path4122"
       cx="103.63618"
       cy="92.555717"
       rx="39.498512"
       ry="39.876488"
       style="fill:#98c5ff;fill-opacity:0;stroke-width:0.26458332"
       transform="rotate(10)" />
  </g>
</svg>
